<svg id="Capa_1" enable-background="new 0 0 512 512" height="512" viewBox="0 0 512 512" width="512" xmlns="http://www.w3.org/2000/svg"><g><path d="m512 256c0 141.385-114.615 256-256 256s-256-114.615-256-256 114.615-256 256-256c56.921 0 109.504 18.578 152.015 50 2.886 2.133-4.556 9-1.765 11.25 17.445 14.06 37.759 32.643 51 50.75 2.006 2.744 9.489-1.426 11.387 1.399 27.385 40.754 43.363 89.811 43.363 142.601z" fill="#f44545"/><path d="m452.958 450.507 5.989 33.43c.549 3.065-1.807 5.882-4.922 5.882h-343.309c-23.113 0-42.904-16.561-46.979-39.311-15.794-88.165-23.737-177.556-23.737-267.124v-48.759c0-5.316 4.309-9.625 9.625-9.625h369.971c5.316 0 9.625 4.309 9.625 9.625v48.759c0 89.568 7.943 178.959 23.737 267.123z" fill="#ffb655"/><path d="m465.958 420.688 7.042 39.312h-349.284c-23.113 0-42.904-16.561-46.979-39.311-15.794-88.165-23.737-177.556-23.737-267.123v-37.202h389.221v37.202c0 89.567 7.943 178.958 23.737 267.122z" fill="#ffcd71"/><path d="m492.958 430.688 5.989 33.43c.549 3.065-1.807 5.882-4.922 5.882h-343.309c-23.113 0-42.904-16.561-46.979-39.311-15.794-88.165-23.737-177.556-23.737-267.123v-37.202h379.886c5.155 0 9.335 4.179 9.335 9.335v27.867c0 89.567 7.943 178.958 23.737 267.122z" fill="#fff68e"/><path d="m100.887 135.909h-60.887v-70.909c0-8.284 6.716-15 15-15h45.887c8.284 0 15 6.716 15 15v55.909c0 8.284-6.715 15-15 15z" fill="#ff9100"/><path d="m469.221 114.272v21.637h-389.221v-70.909c0-8.284 6.716-15 15-15h313.015c23.936 17.693 44.679 39.458 61.206 64.272z" fill="#ffb655"/><path d="m141.511 271.173c-2.781-3.069-2.548-7.813.521-10.594 3.067-2.781 7.811-2.549 10.594.521 4.652 5.134 11.945 8.199 19.509 8.199 7.732 0 13.208-4.783 14.033-9.408.812-4.546-2.973-8.721-10.383-11.454-11.11-4.098-20.973-8.488-21.387-8.673-.361-.161-.709-.351-1.04-.566-7.094-4.625-10.747-12.737-9.536-21.171 1.296-9.027 7.921-16.388 17.289-19.21 18.887-5.691 34.463 7.155 35.117 7.705 3.171 2.666 3.58 7.396.915 10.567-2.656 3.161-7.366 3.578-10.535.942-.245-.198-10.229-8.145-21.171-4.851-5.439 1.639-6.545 5.427-6.768 6.979-.354 2.461.565 4.738 2.471 6.186 2.328 1.021 10.76 4.672 19.836 8.02 17.284 6.376 21.643 18.729 19.958 28.164-2.216 12.412-14.598 21.771-28.8 21.771-11.726-.001-23.174-4.908-30.623-13.127zm30.445 40.894c-4.143 0-7.5 3.358-7.5 7.5v27.232h-34.777v-27.232c0-4.142-3.357-7.5-7.5-7.5s-7.5 3.358-7.5 7.5v71.931c0 4.142 3.357 7.5 7.5 7.5s7.5-3.358 7.5-7.5v-29.699h34.777v29.699c0 4.142 3.357 7.5 7.5 7.5s7.5-3.358 7.5-7.5v-71.931c0-4.142-3.357-7.5-7.5-7.5zm46.462-99.699h12.282v64.431c0 4.142 3.357 7.5 7.5 7.5s7.5-3.358 7.5-7.5v-64.431h12.442c4.143 0 7.5-3.358 7.5-7.5s-3.357-7.5-7.5-7.5h-39.725c-4.143 0-7.5 3.358-7.5 7.5s3.358 7.5 7.501 7.5zm148.758 107.005c-.826-4.058-4.291-7.056-8.426-7.29-4.133-.244-7.916 2.353-9.195 6.292-.027.086-.054.173-.079.26l-14.294 50.145-14.817-50.222c-.026-.088-.054-.176-.083-.264-1.317-3.927-5.123-6.481-9.257-6.202-4.134.276-7.569 3.31-8.37 7.466l-12.643 70.047c-.735 4.076 1.973 7.977 6.049 8.713 4.072.733 7.978-1.972 8.713-6.049l8.235-45.634 13.536 45.878c.026.09.055.179.084.268 1.252 3.724 4.724 6.217 8.649 6.217h.048c3.945-.021 7.414-2.556 8.632-6.308.027-.086.054-.172.079-.259l13.068-45.846 8.746 45.759c.777 4.07 4.715 6.735 8.774 5.959 4.068-.778 6.736-4.706 5.958-8.774zm66.824 64.626h-22.532v-20.637h20.318c4.143 0 7.5-3.358 7.5-7.5s-3.357-7.5-7.5-7.5h-20.318v-20.637h22.532c4.143 0 7.5-3.358 7.5-7.5s-3.357-7.5-7.5-7.5h-30.032c-4.143 0-7.5 3.358-7.5 7.5v71.274c0 4.142 3.357 7.5 7.5 7.5h30.032c4.143 0 7.5-3.358 7.5-7.5s-3.357-7.5-7.5-7.5zm-24.798-185.235c-3.471-2.259-8.118-1.277-10.377 2.194l-16.512 25.365-16.687-25.556c-2.266-3.468-6.914-4.443-10.381-2.179-3.468 2.265-4.444 6.912-2.18 10.38l21.751 33.312-.084 34.5c-.01 4.143 3.34 7.508 7.481 7.519h.019c4.134 0 7.49-3.346 7.5-7.481l.084-34.528 21.578-33.148c2.261-3.472 1.28-8.118-2.192-10.378zm-128.403 156.769c0 23.967-19.499 43.465-43.466 43.465s-43.466-19.499-43.466-43.465c0-23.967 19.499-43.466 43.466-43.466s43.466 19.499 43.466 43.466zm-15 0c0-15.696-12.77-28.466-28.466-28.466s-28.466 12.77-28.466 28.466 12.77 28.465 28.466 28.465 28.466-12.769 28.466-28.465zm27.458-88.897-4.887 12.832c-1.475 3.871-5.812 5.814-9.678 4.339-3.871-1.474-5.814-5.807-4.34-9.678l27.01-70.918c.021-.057.044-.113.067-.169 1.407-3.443 4.721-5.67 8.44-5.674h.01c3.716 0 7.029 2.219 8.443 5.657.028.068.056.136.081.206l26.765 70.921c1.463 3.875-.493 8.203-4.368 9.665-.872.329-1.768.485-2.647.485-3.03 0-5.885-1.851-7.018-4.854l-4.835-12.811h-33.043zm5.713-15h21.67l-10.786-28.579z" fill="#644189"/></g></svg>